<svg xmlns="http://www.w3.org/2000/svg" width="760" height="470" viewBox="0 0 760 470">
  <!-- FotoAlert · Bauhaus icon set · one family, 24-grid, even 1.6 stroke, round joins -->
  <rect x="0" y="0" width="760" height="470" fill="#EAE6DB"/>
  <text x="40" y="36" font-family="'Helvetica Neue',Arial,sans-serif" font-weight="700" font-size="18" letter-spacing="1px" fill="#1A1A1A">EINHEITLICHES ICON-SET</text>
  <text x="40" y="56" font-family="'Helvetica Neue',Arial,sans-serif" font-size="13" fill="#6B6B62">Tab-Icons blau · Status-/Detail-Icons in Tinte · alle gleicher Strich, gleiches Raster</text>

  <g fill="none" stroke-width="1.6" stroke-linecap="round" stroke-linejoin="round">
    <!-- row 1 : the five tabs (blue) -->
    <g stroke="#2D4EA0">
      <g transform="translate(50,90) scale(2)"><path d="M12 3 14.3 9 20.7 9.2 15.5 13 17.4 19.3 12 15.5 6.6 19.3 8.5 13 3.3 9.2 9.7 9 Z"/></g>
      <g transform="translate(195,90) scale(2)"><path d="M3 6 9 3 15 6 21 3 21 18 15 21 9 18 3 21 Z"/><path d="M9 3 V18 M15 6 V21"/></g>
      <g transform="translate(340,90) scale(2)"><rect x="4" y="4" width="16" height="16" rx="4"/><path d="M12 8 V16 M8 12 H16"/></g>
      <g transform="translate(485,90) scale(2)"><path d="M12 21 C12 21 5 15 5 10 a7 7 0 0 1 14 0 c0 5 -7 11 -7 11 Z"/><circle cx="12" cy="10" r="2.6"/></g>
      <g transform="translate(630,90) scale(2)"><path d="M4 8 H20 M4 12 H20 M4 16 H20"/><circle cx="9" cy="8" r="2.1" fill="#EAE6DB"/><circle cx="15" cy="12" r="2.1" fill="#EAE6DB"/><circle cx="8" cy="16" r="2.1" fill="#EAE6DB"/></g>
    </g>
    <!-- row 1 labels -->
    <g fill="#1A1A1A" stroke="none" font-family="'Helvetica Neue',Arial,sans-serif" font-size="12" text-anchor="middle">
      <text x="74" y="152">Chancen</text><text x="219" y="152">Karte</text><text x="364" y="152">Neu</text><text x="509" y="152">Orte</text><text x="654" y="152">Mehr</text>
    </g>

    <!-- row 2 : opportunity types + status (ink) -->
    <g stroke="#1A1A1A">
      <g transform="translate(50,180) scale(2)"><path d="M3 17 H21 M6 17 a6 6 0 0 1 12 0"/><path d="M12 4 V8 M5 8 L7.5 10 M19 8 L16.5 10"/></g>
      <g transform="translate(195,180) scale(2)"><path d="M19 13 A8 8 0 1 1 11 5 a6 6 0 0 0 8 8 Z"/></g>
      <g transform="translate(340,180) scale(2)"><path d="M7 18 a4 4 0 0 1 0-8 5.5 5.5 0 0 1 10.7-1.5 A3.8 3.8 0 0 1 18 18 Z"/></g>
      <g transform="translate(485,180) scale(2)"><path d="M13 3 5 13 11 13 11 21 19 11 13 11 Z"/></g>
      <g transform="translate(630,180) scale(2)"><circle cx="12" cy="12" r="9"/><path d="M14.5 9.5 11 13 9.5 14.5 13 11 Z"/></g>
    </g>
    <g fill="#1A1A1A" stroke="none" font-family="'Helvetica Neue',Arial,sans-serif" font-size="12" text-anchor="middle">
      <text x="74" y="242">Goldene Std.</text><text x="219" y="242">Blaue Std.</text><text x="364" y="242">Wetter</text><text x="509" y="242">Gewitter</text><text x="654" y="242">Kompass</text>
    </g>

    <!-- row 3 : actions + detail (ink) -->
    <g stroke="#1A1A1A">
      <g transform="translate(50,270) scale(2)"><circle cx="11" cy="11" r="7"/><path d="M16 16 L21 21"/></g>
      <g transform="translate(195,270) scale(2)"><path d="M20 11 a8 8 0 1 0 -2.3 6.3 M20 5 V11 H14"/></g>
      <g transform="translate(340,270) scale(2)"><path d="M4 8 h3 l2-2 h6 l2 2 h3 v11 H4 Z"/><circle cx="12" cy="13" r="3.6"/></g>
      <g transform="translate(485,270) scale(2)"><rect x="9" y="3.5" width="6" height="3.5"/><path d="M12 7 V10 M12 10 L6.5 20 M12 10 L17.5 20 M12 10 L12 20"/></g>
      <g transform="translate(630,270) scale(2)"><circle cx="12" cy="12" r="8.5"/><path d="M12 7 V12 L15.5 14"/></g>
    </g>
    <g fill="#1A1A1A" stroke="none" font-family="'Helvetica Neue',Arial,sans-serif" font-size="12" text-anchor="middle">
      <text x="74" y="332">Suche</text><text x="219" y="332">Aktualisieren</text><text x="364" y="332">Kamera</text><text x="509" y="332">Stativ</text><text x="654" y="332">Zeit</text>
    </g>

    <!-- row 4 : nav + gold accent showcase -->
    <g stroke="#1A1A1A">
      <g transform="translate(50,360) scale(2)"><path d="M12 21 C12 21 5 15 5 10 a7 7 0 0 1 14 0 c0 5 -7 11 -7 11 Z"/><path d="M9.5 10 12 12.5 14.5 8.5"/></g>
      <g transform="translate(195,360) scale(2)"><circle cx="12" cy="12" r="9"/><path d="M15 9 10.5 10.5 9 15 13.5 13.5 Z"/></g>
    </g>
    <g stroke="#E3A21A">
      <g transform="translate(340,360) scale(2)"><path d="M12 3 14.3 9 20.7 9.2 15.5 13 17.4 19.3 12 15.5 6.6 19.3 8.5 13 3.3 9.2 9.7 9 Z" fill="#E3A21A"/></g>
      <g transform="translate(485,360) scale(2)"><circle cx="12" cy="12" r="9"/><path d="M8 12 11 15 16 9"/></g>
    </g>
    <g stroke="#C8472F">
      <g transform="translate(630,360) scale(2)"><path d="M12 4 21 19 3 19 Z"/><path d="M12 10 V14 M12 16.5 V16.6"/></g>
    </g>
    <g fill="#1A1A1A" stroke="none" font-family="'Helvetica Neue',Arial,sans-serif" font-size="12" text-anchor="middle">
      <text x="74" y="422">Standort ok</text><text x="219" y="422">Navigation</text><text x="364" y="422">Top-Chance</text><text x="509" y="422">Geprüft</text><text x="654" y="422">Warnung</text>
    </g>
  </g>
</svg>
